# xmcd
#
# Track frame offsets:
#	150
#	16020
#	32512
#	49370
#	65142
#	82090
#	98275
#	118712
#	137920
#	152417
#	172732
#	193375
#	209682
#
# Disc length: 3032 seconds
#
# Revision: 0
# Processed by: cddbd v1.5.1PL2 Copyright (c) Steve Scherf et al.
# Submitted via: audiograbber 1.83.01
#
DISCID=ae0bd60d
DTITLE=стахгс аццекопоукос - ажоялес
DYEAR=1998
DGENRE=каийа
TTITLE0=паяаликас
TTITLE1=кеце лоу кеце лоу
TTITLE2=пяепеи ма жуцы
TTITLE3=де летамиымы
TTITLE4=текеиысе
TTITLE5=ежуце
TTITLE6=биылата
TTITLE7=йатастяожг
TTITLE8=еявесаи
TTITLE9=се суцвыяы
TTITLE10=то дайтукиди
TTITLE11=с' амафгты
TTITLE12=хулалаи
EXTD=
EXTT0=
EXTT1=
EXTT2=
EXTT3=
EXTT4=
EXTT5=
EXTT6=
EXTT7=
EXTT8=
EXTT9=
EXTT10=
EXTT11=
EXTT12=
PLAYORDER=
